<?xml version="1.0" encoding="utf-8"?>
<!-- Generator: Adobe Illustrator 24.0.2, SVG Export Plug-In . SVG Version: 6.00 Build 0)  -->
<svg version="1.1" id="Слой_1" xmlns="http://www.w3.org/2000/svg" xmlns:xlink="http://www.w3.org/1999/xlink" x="0px" y="0px"
	 viewBox="0 0 595.28 595.28" style="enable-background:new 0 0 595.28 595.28;" xml:space="preserve">
<style type="text/css">
	.st0{fill:#004A92;}
	.st1{fill:#FFFFFF;}
</style>
<rect y="-0.82" class="st0"/>
<g>
	<g>
		<g>
			<path class="st1" d="M272.41,287.12h-3.62v5.32h-2.22V278.1h6.82c1.43,0,2.58,0.46,3.43,1.37c0.85,0.92,1.28,1.97,1.28,3.16
				c0,0.98-0.29,1.87-0.88,2.68c-0.59,0.81-1.4,1.35-2.45,1.62l3.7,5.51h-2.56L272.41,287.12z M268.79,285.15h4.48
				c0.81,0,1.46-0.25,1.95-0.74c0.49-0.49,0.73-1.09,0.73-1.78s-0.24-1.29-0.72-1.79c-0.49-0.5-1.12-0.75-1.9-0.75h-4.54V285.15z"/>
			<path class="st1" d="M280.78,291.21c-1.02-0.99-1.53-2.3-1.53-3.91c0-1.55,0.49-2.85,1.48-3.88c0.98-1.03,2.25-1.55,3.82-1.55
				c1.63,0,2.91,0.49,3.85,1.48c0.93,0.99,1.4,2.24,1.4,3.74c0,0.26-0.02,0.55-0.07,0.86h-8.37c0.07,0.87,0.4,1.58,1,2.11
				c0.6,0.53,1.41,0.8,2.42,0.8c1.42,0,2.4-0.55,2.93-1.66l1.96,0.58c-0.37,0.81-0.97,1.5-1.82,2.07s-1.88,0.86-3.11,0.86
				C283.11,292.71,281.79,292.21,280.78,291.21z M287.69,286.5c-0.07-0.82-0.38-1.49-0.93-2.01c-0.55-0.51-1.29-0.77-2.21-0.77
				c-0.89,0-1.62,0.27-2.2,0.81c-0.58,0.55-0.91,1.21-0.99,1.99L287.69,286.5z"/>
			<path class="st1" d="M292.49,291.79c-0.9-0.61-1.49-1.35-1.76-2.22l1.95-0.57c0.19,0.56,0.56,1.02,1.1,1.39
				c0.53,0.37,1.16,0.55,1.87,0.55c0.64,0,1.16-0.14,1.56-0.41c0.39-0.27,0.59-0.59,0.59-0.98c0-0.31-0.1-0.56-0.31-0.75
				c-0.21-0.18-0.55-0.34-1.02-0.48l-2.77-0.82c-1.64-0.49-2.46-1.37-2.46-2.64c0-0.82,0.38-1.52,1.15-2.11s1.7-0.88,2.79-0.88
				c1.08,0,2.02,0.24,2.81,0.72c0.79,0.48,1.34,1.11,1.65,1.88l-1.9,0.56c-0.21-0.41-0.53-0.75-0.98-1.03
				c-0.45-0.27-0.99-0.41-1.6-0.41c-0.52,0-0.95,0.13-1.29,0.38c-0.35,0.25-0.52,0.54-0.52,0.87c0,0.45,0.37,0.8,1.11,1.03
				l2.74,0.79c0.85,0.25,1.51,0.58,1.99,0.99c0.48,0.42,0.72,1.03,0.72,1.82c0,0.93-0.41,1.7-1.22,2.31
				c-0.81,0.62-1.85,0.93-3.1,0.93C294.42,292.71,293.38,292.4,292.49,291.79z"/>
			<path class="st1" d="M311.23,283.41c0.98,1.03,1.47,2.32,1.47,3.87c0,1.55-0.49,2.85-1.47,3.88c-0.99,1.03-2.21,1.55-3.67,1.55
				c-1.6,0-2.83-0.61-3.69-1.83v5.86h-2.15v-14.59h2.15v1.56c0.86-1.22,2.09-1.83,3.69-1.83
				C309.02,281.87,310.24,282.38,311.23,283.41z M309.63,289.78c0.63-0.66,0.94-1.5,0.94-2.51s-0.31-1.84-0.94-2.49
				c-0.63-0.65-1.43-0.98-2.42-0.98c-0.95,0-1.76,0.33-2.41,0.99c-0.66,0.66-0.99,1.49-0.99,2.49c0,1.01,0.33,1.85,0.99,2.51
				c0.65,0.66,1.46,0.99,2.41,0.99C308.19,290.78,309,290.45,309.63,289.78z"/>
			<path class="st1" d="M324.16,282.14v10.3h-2.13v-1.56c-0.83,1.21-2.02,1.82-3.56,1.83c-1.3,0-2.31-0.4-3.02-1.21
				c-0.72-0.81-1.08-1.91-1.08-3.32v-6.04h2.15v5.65c0,0.91,0.22,1.63,0.65,2.14c0.43,0.51,1.06,0.77,1.89,0.77
				c0.89,0,1.6-0.31,2.15-0.94c0.55-0.63,0.82-1.46,0.82-2.5v-5.12H324.16z"/>
			<path class="st1" d="M336.05,283.41c0.98,1.03,1.47,2.32,1.47,3.87c0,1.55-0.49,2.85-1.47,3.88c-0.99,1.03-2.21,1.55-3.67,1.55
				c-1.6,0-2.83-0.61-3.69-1.83v1.56h-2.15v-14.94h2.15v6.21c0.86-1.22,2.09-1.83,3.69-1.83
				C333.84,281.87,335.06,282.38,336.05,283.41z M334.45,289.78c0.63-0.66,0.94-1.5,0.94-2.51s-0.31-1.84-0.94-2.49
				c-0.63-0.65-1.43-0.98-2.42-0.98c-0.95,0-1.76,0.33-2.41,0.99c-0.66,0.66-0.99,1.49-0.99,2.49c0,1.01,0.33,1.85,0.99,2.51
				c0.65,0.66,1.46,0.99,2.41,0.99C333.01,290.78,333.82,290.45,334.45,289.78z"/>
			<path class="st1" d="M339.33,277.49h2.15v14.94h-2.15V277.49z"/>
			<path class="st1" d="M344.03,280.08c-0.26-0.25-0.39-0.57-0.39-0.95c0-0.35,0.13-0.66,0.39-0.92c0.26-0.26,0.58-0.39,0.96-0.39
				c0.38,0,0.7,0.13,0.96,0.39c0.26,0.26,0.39,0.57,0.39,0.92c0,0.38-0.13,0.7-0.39,0.95c-0.26,0.25-0.58,0.38-0.96,0.38
				C344.6,280.46,344.28,280.33,344.03,280.08z M343.9,282.14h2.13v10.3h-2.13V282.14z"/>
			<path class="st1" d="M351.98,288.08l-1.38,1.47v2.89h-2.15v-14.94h2.15v9.34l4.3-4.69h2.54l-4.11,4.46l4.59,5.84h-2.46
				L351.98,288.08z"/>
			<path class="st1" d="M359.36,291.16c-0.98-1.03-1.47-2.33-1.47-3.88c0-1.54,0.49-2.83,1.47-3.86c0.97-1.03,2.19-1.55,3.65-1.55
				c1.61,0,2.85,0.61,3.71,1.83v-1.56h2.13v10.3h-2.13v-1.56c-0.86,1.22-2.1,1.83-3.71,1.83
				C361.55,292.71,360.33,292.19,359.36,291.16z M365.78,289.78c0.65-0.66,0.98-1.49,0.98-2.5c0-1-0.33-1.83-0.98-2.49
				c-0.66-0.66-1.47-0.99-2.42-0.99c-0.98,0-1.78,0.33-2.41,0.98c-0.63,0.65-0.95,1.48-0.95,2.49s0.32,1.85,0.95,2.51
				c0.63,0.67,1.43,1,2.41,1C364.31,290.78,365.12,290.45,365.78,289.78z"/>
		</g>
		<g>
			<path class="st1" d="M278.9,304.76h-5.04v12.33h-2.23v-12.33h-5.06v-2.01h12.33V304.76z"/>
			<path class="st1" d="M279.13,315.81c-0.98-1.03-1.47-2.33-1.47-3.88c0-1.54,0.49-2.83,1.47-3.86c0.97-1.03,2.19-1.55,3.65-1.55
				c1.61,0,2.85,0.61,3.71,1.83v-1.56h2.13v10.3h-2.13v-1.56c-0.86,1.22-2.1,1.83-3.71,1.83
				C281.32,317.36,280.1,316.84,279.13,315.81z M285.55,314.43c0.65-0.66,0.98-1.49,0.98-2.5c0-1-0.33-1.83-0.98-2.49
				c-0.66-0.66-1.47-0.99-2.42-0.99c-0.98,0-1.78,0.33-2.41,0.98c-0.63,0.65-0.95,1.48-0.95,2.49c0,1.01,0.32,1.85,0.95,2.51
				c0.63,0.67,1.43,1,2.41,1C284.08,315.43,284.89,315.1,285.55,314.43z"/>
			<path class="st1" d="M291.51,302.75h2.31l-1.48,5.29h-1.74L291.51,302.75z"/>
			<path class="st1" d="M295.42,302.14h2.15v14.94h-2.15V302.14z"/>
			<path class="st1" d="M300.13,304.73c-0.26-0.25-0.39-0.57-0.39-0.95c0-0.35,0.13-0.66,0.39-0.92c0.26-0.26,0.58-0.39,0.96-0.39
				s0.7,0.13,0.96,0.39s0.39,0.57,0.39,0.92c0,0.38-0.13,0.7-0.39,0.95c-0.26,0.25-0.58,0.38-0.96,0.38S300.39,304.98,300.13,304.73
				z M300,306.79h2.13v10.3H300V306.79z"/>
			<path class="st1" d="M319.66,307.69c0.73,0.78,1.09,1.86,1.09,3.24v6.16h-2.15v-5.75c0-0.89-0.19-1.58-0.58-2.07
				c-0.39-0.49-0.96-0.74-1.73-0.74c-0.79,0-1.42,0.29-1.88,0.86c-0.47,0.57-0.7,1.34-0.7,2.31v5.39h-2.13v-5.75
				c0-0.89-0.19-1.58-0.56-2.07c-0.38-0.49-0.94-0.74-1.67-0.74c-0.82,0-1.47,0.3-1.94,0.9c-0.47,0.6-0.71,1.42-0.71,2.46v5.2h-2.15
				v-10.3h2.15v1.43c0.78-1.13,1.86-1.7,3.24-1.7c1.5,0,2.56,0.59,3.17,1.76c0.78-1.17,1.98-1.76,3.61-1.76
				C317.95,306.52,318.93,306.91,319.66,307.69z"/>
			<path class="st1" d="M342.11,302.75v14.33h-2.23V306.6l-4.92,6.89l-4.89-6.89v10.49h-2.24v-14.33h2.13l5.02,7.21l5-7.21H342.11z"
				/>
			<path class="st1" d="M345.52,315.81c-0.98-1.03-1.47-2.33-1.47-3.88c0-1.54,0.49-2.83,1.47-3.86c0.97-1.03,2.19-1.55,3.65-1.55
				c1.61,0,2.85,0.61,3.71,1.83v-1.56H355v10.3h-2.13v-1.56c-0.86,1.22-2.1,1.83-3.71,1.83
				C347.71,317.36,346.49,316.84,345.52,315.81z M351.94,314.43c0.65-0.66,0.98-1.49,0.98-2.5c0-1-0.33-1.83-0.98-2.49
				c-0.66-0.66-1.47-0.99-2.42-0.99c-0.98,0-1.78,0.33-2.41,0.98c-0.63,0.65-0.95,1.48-0.95,2.49c0,1.01,0.32,1.85,0.95,2.51
				c0.63,0.67,1.43,1,2.41,1C350.47,315.43,351.28,315.1,351.94,314.43z"/>
			<path class="st1" d="M360.93,306.98c0.61-0.32,1.32-0.42,2.14-0.31v2c-1.13-0.17-2,0.05-2.61,0.66
				c-0.61,0.61-0.92,1.65-0.92,3.11v4.65h-2.15v-10.3h2.15v1.64C359.85,307.79,360.32,307.31,360.93,306.98z"/>
			<path class="st1" d="M367.91,312.73l-1.38,1.47v2.89h-2.15v-14.94h2.15v9.34l4.3-4.69h2.54l-4.11,4.46l4.59,5.84h-2.46
				L367.91,312.73z"/>
			<path class="st1" d="M375.29,315.81c-0.98-1.03-1.47-2.33-1.47-3.88c0-1.54,0.49-2.83,1.47-3.86c0.97-1.03,2.19-1.55,3.65-1.55
				c1.61,0,2.85,0.61,3.71,1.83v-1.56h2.13v10.3h-2.13v-1.56c-0.86,1.22-2.1,1.83-3.71,1.83
				C377.48,317.36,376.26,316.84,375.29,315.81z M381.71,314.43c0.65-0.66,0.98-1.49,0.98-2.5c0-1-0.33-1.83-0.98-2.49
				c-0.66-0.66-1.47-0.99-2.42-0.99c-0.98,0-1.78,0.33-2.41,0.98c-0.63,0.65-0.95,1.48-0.95,2.49c0,1.01,0.32,1.85,0.95,2.51
				c0.63,0.67,1.43,1,2.41,1C380.24,315.43,381.05,315.1,381.71,314.43z"/>
			<path class="st1" d="M395.34,315.27v1.82h-8.99v-1.37l5.94-7.11h-5.82v-1.82h8.69v1.41l-5.94,7.07H395.34z"/>
			<path class="st1" d="M396.98,304.73c-0.26-0.25-0.39-0.57-0.39-0.95c0-0.35,0.13-0.66,0.39-0.92c0.26-0.26,0.58-0.39,0.96-0.39
				s0.7,0.13,0.96,0.39s0.39,0.57,0.39,0.92c0,0.38-0.13,0.7-0.39,0.95c-0.26,0.25-0.58,0.38-0.96,0.38S397.24,304.98,396.98,304.73
				z M396.85,306.79h2.13v10.3h-2.13V306.79z"/>
		</g>
	</g>
	<g>
		<path class="st1" d="M220.82,311.42c2.13-1.72,4.76-2.06,7.54-2.4c0.62-0.08,1.27-0.16,1.92-0.26c4.67-0.7,8.16-2.27,10.63-4.78
			c2.19-2.22,3.62-5.9,3.48-8.94c-0.08-1.72-0.64-3.2-1.6-4.36l6.94-8.5l-1.13-0.7c-0.39-0.23-0.76-0.47-1.13-0.7
			c-1.95-1.24-3.96-2.51-6.49-2.68c-0.96-0.06-1.92,0.02-2.84,0.23c-4.45,1.04-7.04,4.65-7.96,6.16l1.99,1.19
			c0.76-1.24,2.92-4.25,6.5-5.09c0.7-0.17,1.43-0.23,2.16-0.17c1.94,0.12,3.62,1.18,5.4,2.31c0,0.02,0.02,0.02,0.03,0.03l-5.93,7.26
			l-0.73,0.9l0.9,0.74c0.98,0.82,1.5,1.99,1.57,3.48c0.14,2.72-1.3,5.68-2.79,7.18c-2.13,2.16-5.17,3.49-9.34,4.13
			c-0.6,0.09-1.24,0.17-1.86,0.25c-1.6,0.2-3.24,0.4-4.82,0.88c-1.35,0.4-2.67,1.02-3.89,2.02c-2.42,1.97-4.13,4.78-4.78,7.84
			c-2.53-0.02-5.09-0.02-7.57-0.02h-1.21c0.56-1.57,1.33-3.06,2.27-4.44c1.44-2.13,3.26-3.94,5.4-5.4h-3.74
			c-1.35,1.21-2.54,2.58-3.58,4.1c-1.37,2.02-2.4,4.24-3.06,6.59l-0.42,1.47H207c2.81,0,5.69,0,8.55,0.02h1.02l0.12-1.01
			C217.08,315.9,218.57,313.23,220.82,311.42z"/>
		<path class="st1" d="M237.22,298.54c0.7-2.29-0.42-4.9-2.67-6.21c-2.27-1.32-4.45-2.84-6.47-4.28l-22.98-16.57l-0.31,2.73
			l21.94,15.73c2.06,1.48,4.3,3.04,6.66,4.41c1.3,0.76,2,2.27,1.61,3.52c-0.36,1.16-1.6,2-3.02,2.04l-31.2,1.26l1.05,2.28
			l30.22-1.21C234.45,302.15,236.58,300.64,237.22,298.54z"/>
		<path class="st1" d="M198.24,297.31c0,0,30.52-0.14,30.52-0.14c0.62-0.03,1.12-0.53,1.13-1.16c0.01-0.45-0.24-0.83-0.6-1.04
			l-28.66-18.13l-0.04,2.76l21.03,13.08l-25.64-7.52l0.21,2.49l24.78,7.27l-23.65,0.07L198.24,297.31z"/>
		<path class="st1" d="M241.05,283.69c0-0.68-0.56-1.24-1.24-1.24c-0.68,0-1.24,0.56-1.24,1.24c0,0.68,0.56,1.24,1.24,1.24
			C240.5,284.93,241.05,284.37,241.05,283.69z"/>
		<path class="st1" d="M226.11,273.82c3.4,0,6.64,0.73,9.57,2.02c0.54-0.22,1.13-0.4,1.74-0.54c0.59-0.14,1.19-0.23,1.82-0.28
			c-3.86-2.25-8.35-3.54-13.13-3.54c-4.27,0-8.3,1.02-11.87,2.84l2.19,1.57C219.39,274.55,222.67,273.82,226.11,273.82z"/>
		<path class="st1" d="M249.93,286.84l-1.68,2.05c1.09,2.7,1.68,5.66,1.68,8.75c0,13.14-10.69,23.82-23.82,23.82
			c-2.25,0-4.45-0.31-6.52-0.92l-0.31,2.34c2.17,0.6,4.45,0.92,6.83,0.92c14.43,0,26.16-11.73,26.16-26.16
			C252.27,293.79,251.43,290.14,249.93,286.84z"/>
	</g>
</g>
</svg>
